<?xml version="1.0" standalone="no"?>
<!DOCTYPE svg PUBLIC "-//W3C//DTD SVG 20010904//EN"
 "http://www.w3.org/TR/2001/REC-SVG-20010904/DTD/svg10.dtd">
<svg version="1.0" xmlns="http://www.w3.org/2000/svg"
 width="720.000000pt" height="720.000000pt" viewBox="0 0 720.000000 720.000000"
 preserveAspectRatio="xMidYMid meet">
<metadata>
Created by potrace 1.16, written by Peter Selinger 2001-2019
</metadata>
<g transform="translate(0.000000,720.000000) scale(0.100000,-0.100000)"
fill="#000000" stroke="none">
<path d="M0 3600 l0 -3600 3600 0 3600 0 0 3600 0 3600 -3600 0 -3600 0 0
-3600z m3278 1706 c108 -29 211 -117 260 -224 34 -74 42 -200 18 -283 -72
-245 -371 -363 -591 -235 -140 82 -224 257 -198 409 28 164 150 301 300 336
58 14 152 12 211 -3z m1042 -404 c35 -53 68 -101 73 -107 4 -5 65 -93 134
-195 121 -178 294 -431 398 -582 28 -40 113 -165 189 -278 76 -113 145 -210
152 -216 8 -6 14 -14 14 -18 0 -6 129 -202 153 -231 4 -5 31 -45 60 -88 29
-42 96 -141 150 -220 53 -78 97 -144 97 -147 0 -3 -26 -4 -57 -3 -32 1 -477 2
-990 2 l-931 1 -73 108 c-40 59 -77 112 -81 117 -8 9 -170 247 -305 446 -51
76 -51 71 24 174 59 81 273 395 273 401 0 2 7 12 15 21 8 10 54 75 102 145 89
129 103 149 313 458 159 234 213 310 220 310 3 0 34 -44 70 -98z m-1773 -695
c69 -103 187 -276 322 -472 49 -71 154 -224 232 -340 79 -115 193 -283 255
-372 131 -189 140 -203 122 -203 -178 -4 -2018 -3 -2018 0 0 3 44 69 97 147
54 79 121 178 150 220 29 43 56 83 60 88 29 36 153 227 153 235 0 6 4 10 8 10
5 0 76 99 158 220 129 191 246 362 354 518 16 23 33 42 37 42 5 0 36 -42 70
-93z m-1016 -1665 c19 -48 39 -86 44 -85 4 1 24 40 44 87 34 82 37 86 67 86
l32 0 -49 -116 c-68 -160 -65 -156 -100 -152 -27 3 -33 11 -79 117 -69 159
-68 151 -28 151 32 0 34 -2 69 -88z m381 -47 l-3 -135 -30 0 -29 0 0 135 0
135 33 0 32 0 -3 -135z m231 123 c7 -7 35 -42 62 -77 l50 -64 3 77 3 77 32 -3
32 -3 0 -130 0 -130 -25 -3 c-22 -2 -36 10 -85 72 -33 41 -63 75 -67 75 -5 1
-8 -33 -8 -74 l0 -75 -30 0 -30 0 0 135 0 135 26 0 c14 0 31 -6 37 -12z m417
-123 l0 -135 -30 0 -30 0 0 135 0 135 30 0 30 0 0 -135z m370 120 c32 -17 38
-36 16 -54 -10 -8 -20 -8 -42 4 -41 21 -71 19 -99 -10 -72 -71 21 -187 104
-129 22 15 24 15 43 -4 l21 -21 -34 -20 c-66 -41 -163 -20 -205 44 -24 37 -23
109 3 143 41 57 132 79 193 47z m250 3 c0 -7 1 -67 2 -133 l1 -120 -31 -3 -32
-3 0 135 0 136 30 0 c17 0 30 -5 30 -12z m230 -76 c0 -102 14 -132 60 -132 46
0 60 30 60 132 l0 88 31 0 31 0 -4 -106 -3 -106 -34 -30 c-31 -28 -39 -30 -88
-26 -42 4 -60 11 -81 32 -25 25 -27 33 -30 131 l-4 105 31 0 31 0 0 -88z m532
70 c6 -6 6 -17 -1 -30 -9 -18 -15 -19 -45 -10 -40 13 -86 4 -86 -17 0 -17 22
-30 70 -40 54 -12 79 -35 80 -74 0 -60 -62 -91 -154 -77 -53 8 -71 25 -53 50
10 14 18 15 40 7 40 -16 82 -13 97 4 18 21 3 34 -51 46 -66 15 -89 34 -89 72
0 36 13 58 45 76 23 13 132 8 147 -7z m333 8 c21 -8 25 -14 19 -33 -3 -12 -7
-23 -8 -24 -1 -1 -18 3 -38 9 -46 14 -88 4 -88 -22 0 -14 9 -21 38 -26 20 -3
54 -16 75 -27 37 -21 47 -49 31 -92 -16 -42 -113 -58 -180 -30 -31 13 -34 17
-24 35 9 16 16 19 33 13 12 -4 42 -8 67 -8 38 0 45 3 45 19 0 15 -13 24 -59
37 -79 24 -91 38 -87 102 3 43 110 72 176 47z m283 -65 c24 -41 47 -77 52 -80
4 -3 27 30 51 73 36 63 49 78 72 80 l27 3 0 -135 0 -136 -30 0 -29 0 -3 73 -3
72 -33 -57 c-42 -73 -60 -74 -96 -8 -15 27 -31 52 -36 55 -6 4 -10 -22 -10
-64 l0 -71 -30 0 -30 0 0 135 0 135 28 0 c23 0 33 -11 70 -75z m432 -60 l0
-135 -30 0 -30 0 0 135 0 135 30 0 30 0 0 -135z m370 110 c0 -22 -4 -25 -40
-25 l-40 0 0 -111 0 -110 -32 3 -32 3 0 105 -1 105 -42 3 c-38 3 -43 6 -43 28
l0 24 115 0 115 0 0 -25z m202 -27 l3 -53 58 -3 57 -3 0 56 0 55 35 0 35 0 0
-135 0 -135 -35 0 -35 0 0 55 0 56 -57 -3 -58 -3 -3 -52 c-3 -51 -4 -53 -33
-53 l-29 0 0 135 0 135 29 0 c29 0 30 -2 33 -52z m-2538 -464 c36 -35 7 -84
-50 -84 -27 0 -34 -4 -34 -20 0 -11 -4 -20 -10 -20 -6 0 -10 30 -10 70 l0 70
44 0 c27 0 51 -6 60 -16z m231 -9 c14 -13 25 -33 25 -45 0 -31 -44 -70 -78
-70 -40 0 -82 35 -82 68 0 65 87 96 135 47z m233 9 c16 -11 22 -25 22 -54 0
-50 -27 -70 -92 -70 l-48 0 0 70 0 70 48 0 c27 0 57 -7 70 -16z m216 10 c30
-12 16 -25 -19 -18 -27 5 -41 2 -55 -11 -43 -39 -7 -92 55 -82 35 6 48 -6 19
-17 -30 -11 -61 -6 -88 15 -66 52 6 144 88 113z m207 -60 c28 -64 31 -98 5
-61 -17 22 -91 24 -100 2 -3 -8 -10 -15 -15 -15 -5 0 5 32 22 70 17 39 37 70
44 70 8 0 27 -30 44 -66z m196 49 c3 -8 -6 -10 -30 -6 -25 4 -36 1 -40 -10 -4
-12 5 -19 36 -30 44 -14 57 -37 37 -62 -13 -15 -56 -20 -84 -9 -29 11 -17 21
25 20 55 -1 60 17 9 37 -45 17 -59 39 -39 63 14 18 80 16 86 -3z m203 7 c0 -5
-11 -10 -25 -10 -24 0 -25 -3 -25 -60 0 -33 -4 -60 -10 -60 -6 0 -10 27 -10
60 0 57 -1 60 -25 60 -14 0 -25 5 -25 10 0 6 27 10 60 10 33 0 60 -4 60 -10z"/>
<path d="M2942 2083 c2 -22 9 -29 29 -31 30 -3 52 18 43 42 -4 10 -18 16 -41
16 -32 0 -34 -2 -31 -27z"/>
<path d="M3157 2092 c-10 -10 -17 -25 -17 -34 0 -22 33 -48 61 -48 32 0 49 17
49 50 0 14 -5 31 -12 38 -18 18 -63 14 -81 -6z"/>
<path d="M3390 2060 l0 -50 34 0 c38 0 66 21 66 50 0 29 -28 50 -66 50 l-34 0
0 -50z"/>
<path d="M3852 2075 c-16 -35 -16 -35 13 -35 28 0 32 17 12 44 -12 17 -14 16
-25 -9z"/>
</g>
</svg>
